<mxfile host="app.diagrams.net" agent="Mozilla/5.0 (Windows NT 10.0; Win64; x64) AppleWebKit/537.36 (KHTML, like Gecko) Chrome/131.0.0.0 Safari/537.36" version="24.9.1">
  <diagram name="PÃ¡gina-1" id="SuZLWtBbLLCxgyxiORj2">
    <mxGraphModel dx="1434" dy="780" grid="1" gridSize="10" guides="1" tooltips="1" connect="1" arrows="1" fold="1" page="1" pageScale="1" pageWidth="827" pageHeight="1169" math="0" shadow="0">
      <root>
        <mxCell id="0" />
        <mxCell id="1" parent="0" />
        <mxCell id="AtMVuWrL1V23cBHveheO-17" style="edgeStyle=orthogonalEdgeStyle;rounded=0;orthogonalLoop=1;jettySize=auto;html=1;exitX=1;exitY=0.5;exitDx=0;exitDy=0;entryX=0;entryY=0.5;entryDx=0;entryDy=0;endArrow=none;endFill=0;" edge="1" parent="1" source="AtMVuWrL1V23cBHveheO-2" target="AtMVuWrL1V23cBHveheO-11">
          <mxGeometry relative="1" as="geometry" />
        </mxCell>
        <mxCell id="AtMVuWrL1V23cBHveheO-22" value="1" style="edgeLabel;html=1;align=center;verticalAlign=middle;resizable=0;points=[];" vertex="1" connectable="0" parent="AtMVuWrL1V23cBHveheO-17">
          <mxGeometry x="0.025" y="2" relative="1" as="geometry">
            <mxPoint as="offset" />
          </mxGeometry>
        </mxCell>
        <mxCell id="AtMVuWrL1V23cBHveheO-2" value="&lt;div&gt;&lt;br&gt;&lt;/div&gt;&lt;div&gt;Usuario&lt;/div&gt;&lt;div&gt;&lt;br&gt;&lt;/div&gt;" style="whiteSpace=wrap;html=1;align=center;fillColor=#dae8fc;gradientColor=#7ea6e0;strokeColor=#6c8ebf;" vertex="1" parent="1">
          <mxGeometry x="190" y="350" width="100" height="40" as="geometry" />
        </mxCell>
        <mxCell id="AtMVuWrL1V23cBHveheO-3" value="&lt;div&gt;Lancamento&lt;/div&gt;" style="whiteSpace=wrap;html=1;align=center;fillColor=#dae8fc;gradientColor=#7ea6e0;strokeColor=#6c8ebf;" vertex="1" parent="1">
          <mxGeometry x="750" y="350" width="100" height="40" as="geometry" />
        </mxCell>
        <mxCell id="AtMVuWrL1V23cBHveheO-4" value="&lt;font style=&quot;font-size: 16px;&quot;&gt;Projeto: Livro Caixa&lt;/font&gt;&lt;div&gt;&lt;font style=&quot;font-size: 16px;&quot;&gt;DER Conceitual&lt;/font&gt;&lt;/div&gt;" style="whiteSpace=wrap;html=1;align=center;fillColor=#ffcd28;gradientColor=#ffa500;strokeColor=#d79b00;" vertex="1" parent="1">
          <mxGeometry x="395" y="250" width="230" height="40" as="geometry" />
        </mxCell>
        <mxCell id="AtMVuWrL1V23cBHveheO-5" value="nome" style="ellipse;whiteSpace=wrap;html=1;align=center;fillColor=#f8cecc;gradientColor=#ea6b66;strokeColor=#b85450;" vertex="1" parent="1">
          <mxGeometry x="190" y="500" width="100" height="40" as="geometry" />
        </mxCell>
        <mxCell id="AtMVuWrL1V23cBHveheO-6" value="emal" style="ellipse;whiteSpace=wrap;html=1;align=center;fillColor=#f8cecc;gradientColor=#ea6b66;strokeColor=#b85450;" vertex="1" parent="1">
          <mxGeometry x="320" y="450" width="100" height="40" as="geometry" />
        </mxCell>
        <mxCell id="AtMVuWrL1V23cBHveheO-8" value="id" style="ellipse;whiteSpace=wrap;html=1;align=center;fontStyle=4;fillColor=#fff2cc;gradientColor=#ffd966;strokeColor=#d6b656;" vertex="1" parent="1">
          <mxGeometry x="70" y="450" width="100" height="40" as="geometry" />
        </mxCell>
        <mxCell id="AtMVuWrL1V23cBHveheO-9" value="id" style="ellipse;whiteSpace=wrap;html=1;align=center;fontStyle=4;fillColor=#fff2cc;gradientColor=#ffd966;strokeColor=#d6b656;" vertex="1" parent="1">
          <mxGeometry x="600" y="420" width="100" height="40" as="geometry" />
        </mxCell>
        <mxCell id="AtMVuWrL1V23cBHveheO-10" value="&lt;span style=&quot;border-bottom: 1px dotted&quot;&gt;usuario&lt;/span&gt;" style="ellipse;whiteSpace=wrap;html=1;align=center;fillColor=#f5f5f5;gradientColor=#b3b3b3;strokeColor=#666666;" vertex="1" parent="1">
          <mxGeometry x="640" y="480" width="100" height="40" as="geometry" />
        </mxCell>
        <mxCell id="AtMVuWrL1V23cBHveheO-18" style="edgeStyle=orthogonalEdgeStyle;rounded=0;orthogonalLoop=1;jettySize=auto;html=1;exitX=1;exitY=0.5;exitDx=0;exitDy=0;entryX=0;entryY=0.5;entryDx=0;entryDy=0;endArrow=none;endFill=0;" edge="1" parent="1" source="AtMVuWrL1V23cBHveheO-11" target="AtMVuWrL1V23cBHveheO-3">
          <mxGeometry relative="1" as="geometry" />
        </mxCell>
        <mxCell id="AtMVuWrL1V23cBHveheO-23" value="N" style="edgeLabel;html=1;align=center;verticalAlign=middle;resizable=0;points=[];" vertex="1" connectable="0" parent="AtMVuWrL1V23cBHveheO-18">
          <mxGeometry x="0.0444" relative="1" as="geometry">
            <mxPoint as="offset" />
          </mxGeometry>
        </mxCell>
        <mxCell id="AtMVuWrL1V23cBHveheO-11" value="faz" style="shape=rhombus;perimeter=rhombusPerimeter;whiteSpace=wrap;html=1;align=center;fillColor=#d5e8d4;gradientColor=#97d077;strokeColor=#82b366;" vertex="1" parent="1">
          <mxGeometry x="450" y="340" width="120" height="60" as="geometry" />
        </mxCell>
        <mxCell id="AtMVuWrL1V23cBHveheO-12" value="nome" style="ellipse;whiteSpace=wrap;html=1;align=center;fillColor=#f8cecc;gradientColor=#ea6b66;strokeColor=#b85450;" vertex="1" parent="1">
          <mxGeometry x="700" y="530" width="100" height="40" as="geometry" />
        </mxCell>
        <mxCell id="AtMVuWrL1V23cBHveheO-13" value="nome" style="ellipse;whiteSpace=wrap;html=1;align=center;fillColor=#f8cecc;gradientColor=#ea6b66;strokeColor=#b85450;" vertex="1" parent="1">
          <mxGeometry x="827" y="530" width="100" height="40" as="geometry" />
        </mxCell>
        <mxCell id="AtMVuWrL1V23cBHveheO-14" value="nome" style="ellipse;whiteSpace=wrap;html=1;align=center;fillColor=#f8cecc;gradientColor=#ea6b66;strokeColor=#b85450;" vertex="1" parent="1">
          <mxGeometry x="890" y="480" width="100" height="40" as="geometry" />
        </mxCell>
        <mxCell id="AtMVuWrL1V23cBHveheO-16" value="nome" style="ellipse;whiteSpace=wrap;html=1;align=center;fillColor=#f8cecc;gradientColor=#ea6b66;strokeColor=#b85450;" vertex="1" parent="1">
          <mxGeometry x="900" y="410" width="100" height="40" as="geometry" />
        </mxCell>
        <mxCell id="AtMVuWrL1V23cBHveheO-19" value="" style="endArrow=none;html=1;rounded=0;" edge="1" parent="1">
          <mxGeometry width="50" height="50" relative="1" as="geometry">
            <mxPoint x="150" y="455" as="sourcePoint" />
            <mxPoint x="210" y="391" as="targetPoint" />
          </mxGeometry>
        </mxCell>
        <mxCell id="AtMVuWrL1V23cBHveheO-20" value="" style="endArrow=none;html=1;rounded=0;entryX=0.5;entryY=1;entryDx=0;entryDy=0;" edge="1" parent="1" source="AtMVuWrL1V23cBHveheO-5" target="AtMVuWrL1V23cBHveheO-2">
          <mxGeometry width="50" height="50" relative="1" as="geometry">
            <mxPoint x="200" y="464" as="sourcePoint" />
            <mxPoint x="249" y="400" as="targetPoint" />
          </mxGeometry>
        </mxCell>
        <mxCell id="AtMVuWrL1V23cBHveheO-21" value="" style="endArrow=none;html=1;rounded=0;entryX=0.75;entryY=1;entryDx=0;entryDy=0;exitX=0.26;exitY=0.05;exitDx=0;exitDy=0;exitPerimeter=0;" edge="1" parent="1" source="AtMVuWrL1V23cBHveheO-6" target="AtMVuWrL1V23cBHveheO-2">
          <mxGeometry width="50" height="50" relative="1" as="geometry">
            <mxPoint x="250" y="510" as="sourcePoint" />
            <mxPoint x="250" y="400" as="targetPoint" />
          </mxGeometry>
        </mxCell>
        <mxCell id="AtMVuWrL1V23cBHveheO-24" value="" style="endArrow=none;html=1;rounded=0;exitX=1;exitY=0;exitDx=0;exitDy=0;" edge="1" parent="1" source="AtMVuWrL1V23cBHveheO-9">
          <mxGeometry width="50" height="50" relative="1" as="geometry">
            <mxPoint x="700" y="440" as="sourcePoint" />
            <mxPoint x="750" y="390" as="targetPoint" />
          </mxGeometry>
        </mxCell>
        <mxCell id="AtMVuWrL1V23cBHveheO-25" value="" style="endArrow=none;html=1;rounded=0;exitX=0.77;exitY=-0.025;exitDx=0;exitDy=0;entryX=0.19;entryY=1.025;entryDx=0;entryDy=0;entryPerimeter=0;exitPerimeter=0;" edge="1" parent="1" source="AtMVuWrL1V23cBHveheO-10" target="AtMVuWrL1V23cBHveheO-3">
          <mxGeometry width="50" height="50" relative="1" as="geometry">
            <mxPoint x="730" y="446" as="sourcePoint" />
            <mxPoint x="795" y="410" as="targetPoint" />
          </mxGeometry>
        </mxCell>
        <mxCell id="AtMVuWrL1V23cBHveheO-26" value="" style="endArrow=none;html=1;rounded=0;exitX=0.6;exitY=-0.05;exitDx=0;exitDy=0;exitPerimeter=0;" edge="1" parent="1" source="AtMVuWrL1V23cBHveheO-12">
          <mxGeometry width="50" height="50" relative="1" as="geometry">
            <mxPoint x="750" y="498" as="sourcePoint" />
            <mxPoint x="790" y="390" as="targetPoint" />
          </mxGeometry>
        </mxCell>
        <mxCell id="AtMVuWrL1V23cBHveheO-27" value="" style="endArrow=none;html=1;rounded=0;exitX=0.33;exitY=0;exitDx=0;exitDy=0;entryX=0.75;entryY=1;entryDx=0;entryDy=0;exitPerimeter=0;" edge="1" parent="1" source="AtMVuWrL1V23cBHveheO-13" target="AtMVuWrL1V23cBHveheO-3">
          <mxGeometry width="50" height="50" relative="1" as="geometry">
            <mxPoint x="800" y="538" as="sourcePoint" />
            <mxPoint x="830" y="400" as="targetPoint" />
          </mxGeometry>
        </mxCell>
        <mxCell id="AtMVuWrL1V23cBHveheO-28" value="" style="endArrow=none;html=1;rounded=0;exitX=0;exitY=0.5;exitDx=0;exitDy=0;entryX=1;entryY=1;entryDx=0;entryDy=0;" edge="1" parent="1" source="AtMVuWrL1V23cBHveheO-16" target="AtMVuWrL1V23cBHveheO-3">
          <mxGeometry width="50" height="50" relative="1" as="geometry">
            <mxPoint x="870" y="540" as="sourcePoint" />
            <mxPoint x="835" y="400" as="targetPoint" />
          </mxGeometry>
        </mxCell>
        <mxCell id="AtMVuWrL1V23cBHveheO-29" value="" style="endArrow=none;html=1;rounded=0;exitX=0.07;exitY=0.15;exitDx=0;exitDy=0;entryX=0.75;entryY=1;entryDx=0;entryDy=0;exitPerimeter=0;" edge="1" parent="1" source="AtMVuWrL1V23cBHveheO-14">
          <mxGeometry width="50" height="50" relative="1" as="geometry">
            <mxPoint x="875" y="530" as="sourcePoint" />
            <mxPoint x="840" y="390" as="targetPoint" />
          </mxGeometry>
        </mxCell>
      </root>
    </mxGraphModel>
  </diagram>
</mxfile>
